<svg width="24" height="24" viewBox="0 0 24 24" fill="none" xmlns="http://www.w3.org/2000/svg">
<g clip-path="url(#clip0_2023_7602)">
<path d="M16.1779 1.3295C17.3713 1.77364 18.4771 2.42155 19.4466 3.24316C19.3797 3.31024 19.3116 3.3776 19.2425 3.44573C19.2183 3.46953 19.194 3.49345 19.1696 3.5175C19.0005 3.68396 18.8256 3.85616 18.6571 4.03206C18.0433 4.64793 17.4287 5.26246 16.8131 5.87565C16.1102 5.29244 15.2977 4.8529 14.4215 4.58406L14.4215 4.58405L14.4188 4.58326C13.1049 4.18805 11.7075 4.16238 10.38 4.50906C9.05321 4.85555 7.84742 5.56059 6.89478 6.5469C6.06587 7.39063 5.43808 8.41058 5.0582 9.53072C4.51449 11.1324 4.51449 12.8687 5.0582 14.4703L5.05831 14.4706C5.59214 16.0399 6.6079 17.4005 7.96068 18.3583C8.80588 18.9605 9.76732 19.38 10.7837 19.5899L10.7836 19.59L10.7934 19.5918C11.7881 19.7768 12.8085 19.777 13.8033 19.5925C14.8038 19.4229 15.7577 19.0459 16.6039 18.4859L16.6039 18.4859L16.6074 18.4835C17.2847 18.0269 17.8629 17.4383 18.3073 16.753C18.7518 16.0676 19.0534 15.2997 19.1942 14.4951L19.2967 13.9089H18.7017H12.7385V10.2796H22.9749C23.2589 12.1687 23.1371 14.0984 22.6156 15.9396C22.1068 17.7343 21.1188 19.3565 19.7576 20.632C18.4493 21.82 16.8551 22.6482 15.1308 23.0355L15.1308 23.0354L15.126 23.0366C13.2076 23.4876 11.2084 23.4661 9.30016 22.9741C6.95311 22.3434 4.87004 20.9769 3.35675 19.0751C1.84293 17.1727 0.979068 14.835 0.892051 12.4054C0.805034 9.97571 1.49945 7.58219 2.87329 5.57637C4.24698 3.57077 6.22755 2.05849 8.52415 1.26159C11.0083 0.409634 13.7093 0.433604 16.1779 1.3295Z" fill="white" stroke="#E33629"/>
<path d="M14.4211 4.58497L14.419 4.58432C13.1055 4.18773 11.7082 4.16057 10.3803 4.50584C9.05306 4.85093 7.84646 5.55476 6.89273 6.54014C6.22562 7.21915 5.68876 8.01228 5.30655 8.87993L2.2806 6.53712C3.6367 4.07263 5.85865 2.19105 8.52409 1.26241C11.0078 0.409993 13.7085 0.433281 16.1771 1.32837C17.371 1.77571 18.4766 2.42711 19.4452 3.2523C19.3331 3.36549 19.2202 3.4774 19.1057 3.591C18.9597 3.73579 18.8109 3.88333 18.6575 4.03975C18.0422 4.65391 17.4275 5.26628 16.8131 5.87687C16.1102 5.29351 15.2975 4.85386 14.4211 4.58497Z" fill="#E33629" stroke="#E33629"/>
<path d="M0.611401 9.65605C0.820163 8.62063 1.16701 7.61792 1.64265 6.6748L5.52953 9.69168C5.02119 11.1891 5.02119 12.8124 5.52953 14.3098C4.23453 15.3098 2.9389 16.3148 1.64265 17.3248C0.452308 14.9554 0.0892746 12.2557 0.611401 9.65605Z" fill="#F8BD00"/>
<path d="M12.2372 9.77832H23.3972C23.7787 11.8726 23.6754 14.0264 23.0953 16.0746C22.5614 17.958 21.5242 19.6602 20.0953 20.9983C18.8409 20.0196 17.5809 19.0483 16.3265 18.0696C16.9484 17.6501 17.4792 17.1094 17.8871 16.4798C18.295 15.8503 18.5716 15.1448 18.7003 14.4058H12.2372C12.2353 12.8646 12.2372 11.3214 12.2372 9.77832Z" fill="#587DBD"/>
<path d="M1.64062 17.3246C2.93687 16.3246 4.2325 15.3196 5.5275 14.3096C6.02851 15.7799 6.98138 17.0544 8.25 17.9508C9.04116 18.5103 9.9403 18.8985 10.89 19.0908C11.8257 19.2649 12.7855 19.2649 13.7213 19.0908C14.6543 18.9331 15.544 18.5818 16.3331 18.0596C17.5875 19.0383 18.8475 20.0096 20.1019 20.9883C18.7292 22.2366 17.0558 23.1068 15.2456 23.5139C13.2476 23.9836 11.1655 23.9611 9.17813 23.4483C7.60632 23.0286 6.13814 22.2888 4.86563 21.2752C3.51886 20.2057 2.41882 18.8582 1.64062 17.3246Z" fill="#319F43"/>
</g>
<defs>
<clipPath id="clip0_2023_7602">
<rect width="24" height="24" fill="white"/>
</clipPath>
</defs>
</svg>
